<!--?xml version="1.0" standalone="no"?-->
              <svg id="sw-js-blob-svg" viewBox="0 0 100 100" xmlns="http://www.w3.org/2000/svg" version="1.1">
                    <defs> 
                        <linearGradient id="sw-gradient" x1="0" x2="1" y1="1" y2="0">
                            <stop id="stop1" stop-color="rgba(11.682, 0, 174.245, 1)" offset="0%"></stop>
                            <stop id="stop2" stop-color="rgba(251, 168, 31, 1)" offset="100%"></stop>
                        </linearGradient>
                    </defs>
                <path fill="url(#sw-gradient)" d="M18.4,-31.5C24.2,-28.4,29.6,-24.3,34.3,-18.9C39,-13.5,43.1,-6.7,44.4,0.7C45.6,8.2,44.1,16.4,40,22.9C35.9,29.4,29.2,34.1,22.1,36.8C15,39.5,7.5,40.1,0.2,39.7C-7.1,39.3,-14.1,38,-20.8,35.1C-27.4,32.1,-33.7,27.6,-37.3,21.5C-40.9,15.4,-41.8,7.7,-41.8,0C-41.7,-7.7,-40.7,-15.3,-36.9,-20.9C-33,-26.5,-26.2,-30.1,-19.6,-32.8C-13,-35.4,-6.5,-37,-0.1,-36.8C6.3,-36.6,12.5,-34.6,18.4,-31.5Z" width="100%" height="100%" transform="translate(50 50)" stroke-width="0" style="transition: all 0.3s ease 0s;" stroke="url(#sw-gradient)"></path>
              </svg>